<svg width="318" height="238" viewBox="0 0 318 238" fill="none" xmlns="http://www.w3.org/2000/svg">
  <g clip-path="url(#clip0_218_1524)">
    <path
      d="M167.35 13.2044V12.7961C169.866 11.909 171.5 9.3362 171.5 6.50002C171.5 2.91066 168.701 0.000244141 165.25 0.000244141C162.521 0.000244141 160.043 1.69489 159.191 4.31653H158.809C157.957 1.69399 155.478 0.000244141 152.75 0.000244141C149.299 0.000244141 146.5 2.91066 146.5 6.50002C146.5 9.33529 148.134 11.908 150.65 12.7961V13.2044C148.134 14.0915 146.5 16.6643 146.5 19.5005C146.5 23.0898 149.299 26.0002 152.75 26.0002C155.479 26.0002 157.957 24.3056 158.809 21.684H159.191C160.043 24.3065 162.522 26.0002 165.25 26.0002C168.701 26.0002 171.5 23.0898 171.5 19.5005C171.5 16.6652 169.866 14.0924 167.35 13.2044ZM166.241 20.5388C165.801 20.9969 163.302 23.1885 160.532 20.2962C159.918 19.6562 159.504 18.9383 159.227 18.2105H158.772C158.496 18.9383 158.081 19.6553 157.467 20.2962C154.697 23.1885 152.198 20.9969 151.758 20.5388C151.266 20.0273 149.211 17.4817 151.991 14.6012C152.605 13.9657 153.291 13.5348 153.989 13.2478V12.768C153.291 12.4811 152.605 12.0502 151.991 11.4147C149.21 8.53414 151.317 5.93513 151.758 5.47707C152.249 4.9656 154.697 2.82737 157.467 5.71968C158.076 6.35518 158.49 7.06762 158.766 7.79001H159.232C159.508 7.06762 159.923 6.35608 160.531 5.71968C163.301 2.82737 165.748 4.96469 166.241 5.47707C166.681 5.93513 168.788 8.53414 166.007 11.4147C165.394 12.0502 164.707 12.4811 164.01 12.768V13.2478C164.707 13.5348 165.394 13.9657 166.007 14.6012C168.788 17.4817 166.733 20.0264 166.241 20.5388H166.241Z"
      fill="#8E1F0B" />
    <path
      d="M158.999 16.9563L158.997 16.9539C158.997 16.9539 158.997 16.9579 158.997 16.9602H159.002C159.002 16.9602 159.002 16.9563 159.002 16.9539L159 16.9563H158.999Z"
      fill="#8E1F0B" />
    <path
      d="M158.997 9.0457L158.999 9.0433L159.001 9.0457C159.001 9.0457 159.001 9.0417 159.001 9.03931H158.996C158.996 9.03931 158.996 9.0433 158.996 9.0457H158.997Z"
      fill="#8E1F0B" />
    <path
      d="M161.097 15.1812C162.255 13.9763 162.255 12.0237 161.097 10.8197C159.939 9.61479 158.061 9.61479 156.903 10.8197C155.746 12.0246 155.746 13.9772 156.903 15.1812C158.062 16.3852 159.94 16.3852 161.097 15.1812Z"
      fill="#8E1F0B" />
  </g>
  <path
    d="M100.697 66C100.458 65.1307 100.109 64.3168 99.6486 63.5582C99.1884 62.7912 98.6174 62.1222 97.9356 61.5511C97.2623 60.9716 96.4824 60.5199 95.5961 60.196C94.7182 59.8722 93.7381 59.7102 92.6557 59.7102C90.9512 59.7102 89.4256 60.1534 88.079 61.0398C86.7324 61.9261 85.6671 63.2045 84.883 64.875C84.1074 66.5455 83.7197 68.5568 83.7197 70.9091C83.7197 73.2528 84.1117 75.2599 84.8958 76.9304C85.6799 78.6009 86.7538 79.8835 88.1174 80.7784C89.4895 81.6648 91.0577 82.108 92.8219 82.108C94.4327 82.108 95.856 81.75 97.0918 81.0341C98.3276 80.3182 99.2907 79.2955 99.981 77.9659C100.68 76.6364 101.021 75.0554 101.004 73.223L101.771 73.4659H93.3844V71.3182H103.33V73.4659C103.33 75.6989 102.879 77.6293 101.975 79.2571C101.072 80.8849 99.8319 82.142 98.2552 83.0284C96.6785 83.9148 94.8674 84.358 92.8219 84.358C90.5378 84.358 88.5393 83.8082 86.8262 82.7088C85.1131 81.6009 83.7793 80.0412 82.8248 78.0298C81.8788 76.0099 81.4057 73.6364 81.4057 70.9091C81.4057 68.8551 81.6785 67.0014 82.2239 65.348C82.7694 63.6946 83.5407 62.2798 84.5378 61.1037C85.5435 59.9276 86.7324 59.0284 88.1046 58.4062C89.4768 57.7756 90.9938 57.4602 92.6557 57.4602C94.0876 57.4602 95.3958 57.6861 96.5805 58.1378C97.7736 58.5895 98.8219 59.2116 99.7253 60.0043C100.637 60.7884 101.383 61.696 101.963 62.7273C102.551 63.75 102.947 64.8409 103.151 66H100.697ZM116.011 84.4091C114.179 84.4091 112.594 83.983 111.256 83.1307C109.918 82.2699 108.882 81.081 108.149 79.5639C107.425 78.0384 107.063 76.2827 107.063 74.2969C107.063 72.3196 107.425 70.5639 108.149 69.0298C108.882 67.4872 109.892 66.2812 111.179 65.4119C112.474 64.5341 113.97 64.0952 115.666 64.0952C116.732 64.0952 117.759 64.2912 118.747 64.6832C119.736 65.0668 120.622 65.6591 121.406 66.4602C122.199 67.2528 122.825 68.2543 123.286 69.4645C123.746 70.6662 123.976 72.0895 123.976 73.7344V74.8594H108.635V72.8523H121.649C121.649 71.5909 121.393 70.4574 120.882 69.4517C120.379 68.4375 119.676 67.6364 118.773 67.0483C117.878 66.4602 116.842 66.1662 115.666 66.1662C114.422 66.1662 113.327 66.4986 112.381 67.1634C111.435 67.8281 110.693 68.706 110.156 69.7969C109.628 70.8878 109.359 72.081 109.351 73.3764V74.5781C109.351 76.1378 109.619 77.5014 110.156 78.669C110.702 79.8281 111.473 80.7273 112.47 81.3665C113.467 82.0057 114.648 82.3253 116.011 82.3253C116.94 82.3253 117.754 82.1804 118.453 81.8906C119.161 81.6009 119.753 81.2131 120.23 80.7273C120.716 80.233 121.082 79.6918 121.33 79.1037L123.49 79.8068C123.192 80.6335 122.702 81.3963 122.02 82.0952C121.347 82.794 120.503 83.3565 119.489 83.7827C118.483 84.2003 117.324 84.4091 116.011 84.4091ZM136.005 64.3636V66.3452H126.634V64.3636H136.005ZM129.562 59.6591H131.85V78.8736C131.85 79.6918 131.991 80.3352 132.272 80.804C132.553 81.2642 132.92 81.5923 133.371 81.7884C133.823 81.9759 134.305 82.0696 134.816 82.0696C135.114 82.0696 135.37 82.0526 135.583 82.0185C135.796 81.9759 135.984 81.9332 136.145 81.8906L136.631 83.9489C136.41 84.0341 136.137 84.1108 135.813 84.179C135.489 84.2557 135.089 84.294 134.611 84.294C133.776 84.294 132.971 84.1108 132.195 83.7443C131.428 83.3778 130.797 82.8324 130.303 82.108C129.809 81.3835 129.562 80.4844 129.562 79.4105V59.6591ZM149.858 84V64.3636H152.069V67.3807H152.236C152.628 66.392 153.309 65.5952 154.281 64.9901C155.261 64.3764 156.369 64.0696 157.605 64.0696C157.792 64.0696 158.001 64.0739 158.231 64.0824C158.461 64.0909 158.653 64.0994 158.807 64.108V66.4219C158.704 66.4048 158.525 66.3793 158.27 66.3452C158.014 66.3111 157.737 66.294 157.439 66.294C156.416 66.294 155.504 66.5114 154.703 66.946C153.91 67.3722 153.284 67.9645 152.824 68.723C152.363 69.4815 152.133 70.3466 152.133 71.3182V84H149.858ZM169.311 84.4091C167.479 84.4091 165.893 83.983 164.555 83.1307C163.217 82.2699 162.182 81.081 161.449 79.5639C160.724 78.0384 160.362 76.2827 160.362 74.2969C160.362 72.3196 160.724 70.5639 161.449 69.0298C162.182 67.4872 163.192 66.2812 164.479 65.4119C165.774 64.5341 167.27 64.0952 168.966 64.0952C170.031 64.0952 171.058 64.2912 172.047 64.6832C173.036 65.0668 173.922 65.6591 174.706 66.4602C175.499 67.2528 176.125 68.2543 176.585 69.4645C177.045 70.6662 177.276 72.0895 177.276 73.7344V74.8594H161.935V72.8523H174.949C174.949 71.5909 174.693 70.4574 174.182 69.4517C173.679 68.4375 172.976 67.6364 172.072 67.0483C171.178 66.4602 170.142 66.1662 168.966 66.1662C167.722 66.1662 166.626 66.4986 165.68 67.1634C164.734 67.8281 163.993 68.706 163.456 69.7969C162.928 70.8878 162.659 72.081 162.651 73.3764V74.5781C162.651 76.1378 162.919 77.5014 163.456 78.669C164.001 79.8281 164.773 80.7273 165.77 81.3665C166.767 82.0057 167.947 82.3253 169.311 82.3253C170.24 82.3253 171.054 82.1804 171.753 81.8906C172.46 81.6009 173.053 81.2131 173.53 80.7273C174.016 80.233 174.382 79.6918 174.629 79.1037L176.79 79.8068C176.491 80.6335 176.001 81.3963 175.32 82.0952C174.646 82.794 173.803 83.3565 172.788 83.7827C171.783 84.2003 170.624 84.4091 169.311 84.4091ZM187.054 84.4474C185.87 84.4474 184.787 84.2173 183.807 83.7571C182.827 83.2884 182.047 82.6151 181.468 81.7372C180.888 80.8509 180.599 79.777 180.599 78.5156C180.599 77.544 180.782 76.7259 181.148 76.0611C181.515 75.3963 182.035 74.8509 182.708 74.4247C183.381 73.9986 184.178 73.6619 185.099 73.4148C186.019 73.1676 187.033 72.9759 188.141 72.8395C189.241 72.7031 190.17 72.5838 190.928 72.4815C191.695 72.3793 192.279 72.2173 192.679 71.9957C193.08 71.7741 193.28 71.4162 193.28 70.9219V70.4616C193.28 69.1236 192.88 68.071 192.079 67.304C191.286 66.5284 190.144 66.1406 188.653 66.1406C187.238 66.1406 186.083 66.4517 185.188 67.0739C184.302 67.696 183.679 68.429 183.322 69.2727L181.161 68.4929C181.604 67.419 182.218 66.5625 183.002 65.9233C183.786 65.2756 184.664 64.8111 185.635 64.5298C186.607 64.2401 187.591 64.0952 188.589 64.0952C189.339 64.0952 190.118 64.1932 190.928 64.3892C191.746 64.5852 192.505 64.9261 193.204 65.4119C193.903 65.8892 194.469 66.5582 194.904 67.419C195.339 68.2713 195.556 69.3537 195.556 70.6662V84H193.28V80.8935H193.14C192.867 81.473 192.462 82.0355 191.925 82.581C191.388 83.1264 190.715 83.5739 189.905 83.9233C189.096 84.2727 188.145 84.4474 187.054 84.4474ZM187.361 82.3636C188.572 82.3636 189.62 82.0952 190.506 81.5582C191.393 81.0213 192.074 80.3097 192.552 79.4233C193.037 78.5284 193.28 77.544 193.28 76.4702V73.6321C193.11 73.794 192.824 73.9389 192.424 74.0668C192.032 74.1946 191.576 74.3097 191.056 74.4119C190.545 74.5057 190.033 74.5866 189.522 74.6548C189.01 74.723 188.55 74.7827 188.141 74.8338C187.033 74.9702 186.087 75.1832 185.303 75.473C184.519 75.7628 183.918 76.1634 183.501 76.6747C183.083 77.1776 182.874 77.8253 182.874 78.6179C182.874 79.8111 183.3 80.7358 184.153 81.392C185.005 82.0398 186.074 82.3636 187.361 82.3636ZM207.959 84.4091C206.348 84.4091 204.937 83.983 203.727 83.1307C202.517 82.2784 201.571 81.0895 200.889 79.5639C200.216 78.0384 199.879 76.2614 199.879 74.233C199.879 72.2131 200.216 70.4446 200.889 68.9276C201.571 67.402 202.521 66.2173 203.74 65.3736C204.959 64.5213 206.378 64.0952 207.997 64.0952C209.19 64.0952 210.183 64.3082 210.976 64.7344C211.768 65.152 212.403 65.6719 212.881 66.294C213.358 66.9162 213.729 67.5213 213.993 68.1094H214.197V57.8182H216.486V84H214.261V80.3565H213.993C213.729 80.9531 213.354 81.5668 212.868 82.1974C212.382 82.8196 211.739 83.3437 210.937 83.7699C210.145 84.196 209.152 84.4091 207.959 84.4091ZM208.227 82.3253C209.497 82.3253 210.58 81.9801 211.474 81.2898C212.369 80.5909 213.051 79.6321 213.52 78.4134C213.997 77.1861 214.236 75.7798 214.236 74.1946C214.236 72.6264 214.001 71.2415 213.533 70.0398C213.064 68.8295 212.382 67.8835 211.487 67.2017C210.592 66.5114 209.506 66.1662 208.227 66.1662C206.915 66.1662 205.807 66.5241 204.903 67.2401C204.008 67.9474 203.327 68.9062 202.858 70.1165C202.398 71.3267 202.168 72.6861 202.168 74.1946C202.168 75.7202 202.402 77.0966 202.871 78.3239C203.339 79.5511 204.021 80.527 204.916 81.2514C205.82 81.9673 206.923 82.3253 208.227 82.3253ZM223.833 91.3636C223.381 91.3636 222.959 91.321 222.567 91.2358C222.175 91.1506 221.864 91.0568 221.634 90.9545L222.247 88.9474C223.023 89.1861 223.713 89.2713 224.318 89.2031C224.923 89.1435 225.46 88.8707 225.929 88.3849C226.398 87.9077 226.815 87.1747 227.182 86.1861L227.898 84.1918L220.675 64.3636H223.142L228.972 80.9957H229.151L234.98 64.3636H237.448L229.138 87.1065C228.788 88.0526 228.358 88.8409 227.847 89.4716C227.335 90.1108 226.743 90.5838 226.07 90.8906C225.405 91.206 224.659 91.3636 223.833 91.3636Z"
    fill="#8E1F0B" />
  <path
    d="M70.7691 114.364V118.455H58.6498V114.364H70.7691ZM61.424 134V112.945C61.424 111.521 61.7009 110.341 62.2549 109.403C62.8174 108.466 63.5845 107.763 64.5561 107.294C65.5276 106.825 66.6313 106.591 67.8671 106.591C68.7024 106.591 69.4651 106.655 70.1555 106.783C70.8544 106.911 71.3742 107.026 71.7151 107.128L70.7436 111.219C70.5305 111.151 70.2663 111.087 69.9509 111.027C69.6441 110.967 69.3288 110.938 69.0049 110.938C68.2038 110.938 67.6455 111.125 67.3302 111.5C67.0149 111.866 66.8572 112.382 66.8572 113.047V134H61.424ZM81.5452 134.384C79.5594 134.384 77.8421 133.962 76.3932 133.118C74.9529 132.266 73.8407 131.081 73.0566 129.564C72.2725 128.038 71.8804 126.27 71.8804 124.259C71.8804 122.23 72.2725 120.457 73.0566 118.94C73.8407 117.415 74.9529 116.23 76.3932 115.386C77.8421 114.534 79.5594 114.108 81.5452 114.108C83.531 114.108 85.2441 114.534 86.6844 115.386C88.1333 116.23 89.2498 117.415 90.0339 118.94C90.8179 120.457 91.21 122.23 91.21 124.259C91.21 126.27 90.8179 128.038 90.0339 129.564C89.2498 131.081 88.1333 132.266 86.6844 133.118C85.2441 133.962 83.531 134.384 81.5452 134.384ZM81.5708 130.165C82.4742 130.165 83.2285 129.909 83.8336 129.398C84.4387 128.878 84.8946 128.17 85.2015 127.276C85.5168 126.381 85.6745 125.362 85.6745 124.22C85.6745 123.078 85.5168 122.06 85.2015 121.165C84.8946 120.27 84.4387 119.562 83.8336 119.043C83.2285 118.523 82.4742 118.263 81.5708 118.263C80.6589 118.263 79.8918 118.523 79.2697 119.043C78.656 119.562 78.1915 120.27 77.8762 121.165C77.5694 122.06 77.416 123.078 77.416 124.22C77.416 125.362 77.5694 126.381 77.8762 127.276C78.1915 128.17 78.656 128.878 79.2697 129.398C79.8918 129.909 80.6589 130.165 81.5708 130.165ZM94.0312 134V114.364H99.311V117.79H99.5156C99.8735 116.571 100.474 115.651 101.318 115.028C102.162 114.398 103.133 114.082 104.233 114.082C104.506 114.082 104.8 114.099 105.115 114.134C105.43 114.168 105.707 114.214 105.946 114.274V119.107C105.69 119.03 105.337 118.962 104.885 118.902C104.433 118.842 104.02 118.812 103.645 118.812C102.844 118.812 102.128 118.987 101.497 119.337C100.875 119.678 100.381 120.155 100.014 120.768C99.6562 121.382 99.4772 122.089 99.4772 122.891V134H94.0312ZM126.098 114.364V118.455H114.273V114.364H126.098ZM116.958 109.659H122.404V127.966C122.404 128.469 122.48 128.861 122.634 129.142C122.787 129.415 123 129.607 123.273 129.717C123.554 129.828 123.878 129.884 124.245 129.884C124.5 129.884 124.756 129.862 125.012 129.82C125.267 129.768 125.463 129.73 125.6 129.705L126.456 133.757C126.184 133.842 125.8 133.94 125.306 134.051C124.811 134.17 124.211 134.243 123.503 134.268C122.191 134.32 121.04 134.145 120.051 133.744C119.071 133.344 118.309 132.722 117.763 131.878C117.218 131.034 116.949 129.969 116.958 128.682V109.659ZM134.794 122.648V134H129.348V107.818H134.64V117.828H134.87C135.314 116.669 136.03 115.761 137.018 115.105C138.007 114.44 139.247 114.108 140.738 114.108C142.102 114.108 143.291 114.406 144.305 115.003C145.328 115.591 146.12 116.439 146.683 117.547C147.254 118.646 147.535 119.963 147.527 121.497V134H142.081V122.469C142.089 121.259 141.782 120.317 141.16 119.643C140.547 118.97 139.686 118.634 138.578 118.634C137.836 118.634 137.18 118.791 136.609 119.107C136.047 119.422 135.603 119.882 135.28 120.487C134.964 121.084 134.802 121.804 134.794 122.648ZM160.041 134.384C158.022 134.384 156.283 133.974 154.826 133.156C153.377 132.33 152.26 131.162 151.476 129.653C150.692 128.136 150.3 126.342 150.3 124.271C150.3 122.251 150.692 120.479 151.476 118.953C152.26 117.428 153.364 116.239 154.787 115.386C156.219 114.534 157.898 114.108 159.824 114.108C161.12 114.108 162.326 114.317 163.442 114.734C164.567 115.143 165.547 115.761 166.382 116.588C167.226 117.415 167.882 118.455 168.351 119.707C168.82 120.952 169.054 122.409 169.054 124.08V125.575H152.473V122.2H163.928C163.928 121.416 163.757 120.722 163.416 120.116C163.076 119.511 162.603 119.038 161.997 118.697C161.401 118.348 160.706 118.173 159.914 118.173C159.087 118.173 158.354 118.365 157.715 118.749C157.084 119.124 156.59 119.631 156.232 120.27C155.874 120.901 155.691 121.604 155.682 122.379V125.588C155.682 126.56 155.861 127.399 156.219 128.107C156.585 128.814 157.101 129.359 157.766 129.743C158.431 130.126 159.219 130.318 160.131 130.318C160.736 130.318 161.29 130.233 161.793 130.062C162.296 129.892 162.726 129.636 163.084 129.295C163.442 128.955 163.715 128.537 163.902 128.043L168.939 128.375C168.684 129.585 168.159 130.642 167.367 131.545C166.583 132.44 165.568 133.139 164.324 133.642C163.088 134.136 161.661 134.384 160.041 134.384ZM188.347 141.773C186.583 141.773 185.07 141.53 183.808 141.044C182.556 140.567 181.558 139.915 180.817 139.088C180.076 138.261 179.594 137.332 179.372 136.301L184.409 135.624C184.563 136.016 184.806 136.382 185.138 136.723C185.47 137.064 185.909 137.337 186.455 137.541C187.009 137.754 187.682 137.861 188.475 137.861C189.659 137.861 190.635 137.571 191.402 136.991C192.178 136.42 192.566 135.462 192.566 134.115V130.523H192.335C192.097 131.068 191.739 131.584 191.262 132.07C190.784 132.555 190.171 132.952 189.421 133.259C188.671 133.565 187.776 133.719 186.736 133.719C185.262 133.719 183.919 133.378 182.709 132.696C181.507 132.006 180.549 130.953 179.833 129.538C179.125 128.115 178.772 126.317 178.772 124.143C178.772 121.919 179.134 120.061 179.858 118.57C180.583 117.078 181.546 115.962 182.747 115.22C183.958 114.479 185.283 114.108 186.723 114.108C187.823 114.108 188.743 114.295 189.485 114.67C190.226 115.037 190.823 115.497 191.274 116.051C191.735 116.597 192.088 117.134 192.335 117.662H192.54V114.364H197.948V134.192C197.948 135.862 197.539 137.26 196.72 138.385C195.902 139.51 194.769 140.354 193.32 140.916C191.88 141.487 190.222 141.773 188.347 141.773ZM188.462 129.628C189.34 129.628 190.081 129.411 190.686 128.976C191.3 128.533 191.769 127.902 192.093 127.084C192.425 126.257 192.591 125.268 192.591 124.118C192.591 122.967 192.429 121.97 192.105 121.126C191.781 120.274 191.313 119.614 190.699 119.145C190.085 118.676 189.34 118.442 188.462 118.442C187.567 118.442 186.813 118.685 186.199 119.17C185.585 119.648 185.121 120.312 184.806 121.165C184.49 122.017 184.333 123.001 184.333 124.118C184.333 125.251 184.49 126.232 184.806 127.058C185.13 127.876 185.594 128.511 186.199 128.963C186.813 129.406 187.567 129.628 188.462 129.628ZM207.008 107.818V134H201.562V107.818H207.008ZM219.522 134.384C217.536 134.384 215.819 133.962 214.37 133.118C212.93 132.266 211.818 131.081 211.034 129.564C210.25 128.038 209.857 126.27 209.857 124.259C209.857 122.23 210.25 120.457 211.034 118.94C211.818 117.415 212.93 116.23 214.37 115.386C215.819 114.534 217.536 114.108 219.522 114.108C221.508 114.108 223.221 114.534 224.661 115.386C226.11 116.23 227.227 117.415 228.011 118.94C228.795 120.457 229.187 122.23 229.187 124.259C229.187 126.27 228.795 128.038 228.011 129.564C227.227 131.081 226.11 132.266 224.661 133.118C223.221 133.962 221.508 134.384 219.522 134.384ZM219.548 130.165C220.451 130.165 221.206 129.909 221.811 129.398C222.416 128.878 222.872 128.17 223.179 127.276C223.494 126.381 223.652 125.362 223.652 124.22C223.652 123.078 223.494 122.06 223.179 121.165C222.872 120.27 222.416 119.562 221.811 119.043C221.206 118.523 220.451 118.263 219.548 118.263C218.636 118.263 217.869 118.523 217.247 119.043C216.633 119.562 216.169 120.27 215.853 121.165C215.546 122.06 215.393 123.078 215.393 124.22C215.393 125.362 215.546 126.381 215.853 127.276C216.169 128.17 216.633 128.878 217.247 129.398C217.869 129.909 218.636 130.165 219.548 130.165ZM235.39 134L230.046 114.364H235.556L238.598 127.557H238.777L241.948 114.364H247.356L250.577 127.48H250.743L253.735 114.364H259.232L253.901 134H248.135L244.76 121.651H244.517L241.142 134H235.39Z"
    fill="#8E1F0B" />
  <path
    d="M76.0517 162H73.6483C73.4693 161.105 73.1455 160.278 72.6767 159.52C72.2165 158.753 71.6369 158.084 70.9381 157.513C70.2392 156.942 69.4466 156.499 68.5602 156.183C67.6739 155.868 66.7151 155.71 65.6838 155.71C64.0304 155.71 62.5219 156.141 61.1582 157.001C59.8031 157.862 58.7165 159.128 57.8983 160.798C57.0886 162.46 56.6838 164.497 56.6838 166.909C56.6838 169.338 57.0886 171.384 57.8983 173.045C58.7165 174.707 59.8031 175.969 61.1582 176.83C62.5219 177.682 64.0304 178.108 65.6838 178.108C66.7151 178.108 67.6739 177.95 68.5602 177.635C69.4466 177.32 70.2392 176.881 70.9381 176.318C71.6369 175.747 72.2165 175.078 72.6767 174.311C73.1455 173.544 73.4693 172.713 73.6483 171.818H76.0517C75.8386 173.02 75.4381 174.141 74.85 175.18C74.2705 176.212 73.529 177.115 72.6256 177.891C71.7307 178.666 70.6994 179.271 69.5318 179.706C68.3642 180.141 67.0815 180.358 65.6838 180.358C63.4849 180.358 61.5332 179.808 59.8287 178.709C58.1241 177.601 56.7861 176.041 55.8145 174.03C54.8514 172.018 54.3699 169.645 54.3699 166.909C54.3699 164.173 54.8514 161.8 55.8145 159.788C56.7861 157.777 58.1241 156.222 59.8287 155.122C61.5332 154.014 63.4849 153.46 65.6838 153.46C67.0815 153.46 68.3642 153.678 69.5318 154.112C70.6994 154.538 71.7307 155.143 72.6256 155.928C73.529 156.703 74.2705 157.607 74.85 158.638C75.4381 159.669 75.8386 160.79 76.0517 162ZM88.1062 180.409C86.4102 180.409 84.9102 179.979 83.6062 179.118C82.3108 178.257 81.2965 177.068 80.5636 175.551C79.8306 174.026 79.4642 172.266 79.4642 170.271C79.4642 168.26 79.8306 166.491 80.5636 164.966C81.2965 163.432 82.3108 162.239 83.6062 161.386C84.9102 160.526 86.4102 160.095 88.1062 160.095C89.8022 160.095 91.298 160.526 92.5934 161.386C93.8889 162.247 94.9031 163.44 95.636 164.966C96.3775 166.491 96.7483 168.26 96.7483 170.271C96.7483 172.266 96.3818 174.026 95.6488 175.551C94.9159 177.068 93.8974 178.257 92.5934 179.118C91.298 179.979 89.8022 180.409 88.1062 180.409ZM88.1062 178.325C89.4698 178.325 90.6247 177.959 91.5707 177.226C92.5167 176.493 93.2326 175.517 93.7184 174.298C94.2127 173.08 94.4599 171.737 94.4599 170.271C94.4599 168.805 94.2127 167.459 93.7184 166.232C93.2326 165.004 92.5167 164.02 91.5707 163.278C90.6247 162.537 89.4698 162.166 88.1062 162.166C86.7511 162.166 85.5963 162.537 84.6417 163.278C83.6957 164.02 82.9755 165.004 82.4812 166.232C81.9954 167.459 81.7525 168.805 81.7525 170.271C81.7525 171.737 81.9954 173.08 82.4812 174.298C82.9755 175.517 83.6957 176.493 84.6417 177.226C85.5877 177.959 86.7426 178.325 88.1062 178.325ZM101.024 180V160.364H103.235V163.381H103.44C103.832 162.366 104.484 161.57 105.396 160.99C106.316 160.402 107.42 160.108 108.707 160.108C110.062 160.108 111.174 160.428 112.044 161.067C112.921 161.697 113.578 162.567 114.012 163.675H114.178C114.622 162.584 115.342 161.719 116.339 161.08C117.345 160.432 118.563 160.108 119.995 160.108C121.819 160.108 123.259 160.683 124.316 161.834C125.373 162.976 125.901 164.646 125.901 166.845V180H123.626V166.845C123.626 165.294 123.23 164.131 122.437 163.355C121.644 162.58 120.6 162.192 119.305 162.192C117.805 162.192 116.65 162.652 115.84 163.572C115.031 164.493 114.626 165.661 114.626 167.075V180H112.299V166.641C112.299 165.311 111.928 164.237 111.187 163.419C110.446 162.601 109.401 162.192 108.055 162.192C107.151 162.192 106.338 162.413 105.613 162.857C104.897 163.3 104.33 163.918 103.913 164.71C103.504 165.494 103.299 166.398 103.299 167.42V180H101.024ZM131.232 180V160.364H133.52V180H131.232ZM132.395 156.989C131.926 156.989 131.526 156.831 131.193 156.516C130.861 156.192 130.695 155.804 130.695 155.352C130.695 154.901 130.861 154.517 131.193 154.202C131.526 153.878 131.926 153.716 132.395 153.716C132.864 153.716 133.264 153.878 133.597 154.202C133.929 154.517 134.095 154.901 134.095 155.352C134.095 155.804 133.929 156.192 133.597 156.516C133.264 156.831 132.864 156.989 132.395 156.989ZM141.094 167.727V180H138.818V160.364H141.03V163.445H141.234C141.694 162.439 142.41 161.634 143.382 161.028C144.362 160.415 145.572 160.108 147.013 160.108C148.334 160.108 149.493 160.385 150.49 160.939C151.496 161.484 152.275 162.29 152.829 163.355C153.392 164.42 153.673 165.729 153.673 167.28V180H151.398V167.42C151.398 165.81 150.946 164.536 150.042 163.598C149.148 162.661 147.946 162.192 146.437 162.192C145.406 162.192 144.49 162.413 143.689 162.857C142.888 163.3 142.253 163.939 141.784 164.774C141.324 165.601 141.094 166.585 141.094 167.727ZM166.437 187.773C165.099 187.773 163.927 187.598 162.922 187.249C161.916 186.908 161.068 186.439 160.377 185.842C159.687 185.246 159.15 184.577 158.767 183.835L160.633 182.608C160.914 183.102 161.289 183.588 161.758 184.065C162.235 184.543 162.853 184.939 163.612 185.254C164.379 185.57 165.321 185.727 166.437 185.727C168.176 185.727 169.578 185.293 170.643 184.423C171.717 183.554 172.254 182.203 172.254 180.371V175.947H172.049C171.785 176.544 171.406 177.141 170.912 177.737C170.417 178.325 169.77 178.815 168.968 179.207C168.176 179.599 167.191 179.795 166.015 179.795C164.447 179.795 163.054 179.408 161.835 178.632C160.625 177.857 159.67 176.749 158.971 175.308C158.281 173.859 157.936 172.134 157.936 170.131C157.936 168.145 158.272 166.398 158.946 164.889C159.627 163.381 160.578 162.205 161.797 161.361C163.015 160.517 164.434 160.095 166.054 160.095C167.255 160.095 168.252 160.308 169.045 160.734C169.838 161.152 170.473 161.672 170.95 162.294C171.436 162.916 171.815 163.521 172.088 164.109H172.318V160.364H174.542V180.511C174.542 182.173 174.189 183.541 173.481 184.615C172.774 185.689 171.811 186.482 170.592 186.993C169.373 187.513 167.988 187.773 166.437 187.773ZM166.284 177.712C167.545 177.712 168.623 177.409 169.518 176.804C170.413 176.19 171.099 175.312 171.576 174.17C172.054 173.028 172.292 171.669 172.292 170.092C172.292 168.558 172.058 167.199 171.589 166.014C171.12 164.821 170.439 163.884 169.544 163.202C168.657 162.511 167.571 162.166 166.284 162.166C164.971 162.166 163.863 162.52 162.96 163.227C162.056 163.935 161.375 164.889 160.914 166.091C160.454 167.284 160.224 168.618 160.224 170.092C160.224 171.592 160.458 172.918 160.927 174.068C161.396 175.21 162.082 176.105 162.985 176.753C163.889 177.392 164.988 177.712 166.284 177.712ZM202.445 164.672L200.361 165.26C200.157 164.672 199.867 164.139 199.492 163.662C199.117 163.185 198.627 162.805 198.022 162.524C197.425 162.243 196.684 162.102 195.797 162.102C194.468 162.102 193.377 162.418 192.524 163.048C191.672 163.679 191.246 164.493 191.246 165.49C191.246 166.334 191.536 167.02 192.115 167.548C192.703 168.068 193.607 168.482 194.826 168.788L197.792 169.517C199.436 169.918 200.668 170.553 201.486 171.422C202.313 172.291 202.726 173.382 202.726 174.695C202.726 175.803 202.419 176.787 201.806 177.648C201.192 178.509 200.336 179.186 199.236 179.68C198.145 180.166 196.88 180.409 195.439 180.409C193.522 180.409 191.941 179.979 190.696 179.118C189.452 178.249 188.655 176.996 188.306 175.359L190.492 174.822C190.773 175.99 191.323 176.872 192.141 177.469C192.968 178.065 194.054 178.364 195.401 178.364C196.909 178.364 198.115 178.027 199.019 177.354C199.922 176.672 200.374 175.82 200.374 174.797C200.374 174.004 200.11 173.339 199.581 172.803C199.053 172.257 198.252 171.857 197.178 171.601L193.969 170.834C192.265 170.425 191.003 169.777 190.185 168.891C189.367 168.004 188.958 166.905 188.958 165.592C188.958 164.51 189.252 163.56 189.84 162.741C190.428 161.915 191.238 161.267 192.269 160.798C193.3 160.33 194.476 160.095 195.797 160.095C197.596 160.095 199.032 160.504 200.105 161.322C201.188 162.132 201.968 163.249 202.445 164.672ZM214.621 180.409C212.925 180.409 211.425 179.979 210.121 179.118C208.825 178.257 207.811 177.068 207.078 175.551C206.345 174.026 205.979 172.266 205.979 170.271C205.979 168.26 206.345 166.491 207.078 164.966C207.811 163.432 208.825 162.239 210.121 161.386C211.425 160.526 212.925 160.095 214.621 160.095C216.317 160.095 217.813 160.526 219.108 161.386C220.404 162.247 221.418 163.44 222.151 164.966C222.892 166.491 223.263 168.26 223.263 170.271C223.263 172.266 222.896 174.026 222.164 175.551C221.431 177.068 220.412 178.257 219.108 179.118C217.813 179.979 216.317 180.409 214.621 180.409ZM214.621 178.325C215.985 178.325 217.139 177.959 218.085 177.226C219.031 176.493 219.747 175.517 220.233 174.298C220.727 173.08 220.975 171.737 220.975 170.271C220.975 168.805 220.727 167.459 220.233 166.232C219.747 165.004 219.031 164.02 218.085 163.278C217.139 162.537 215.985 162.166 214.621 162.166C213.266 162.166 212.111 162.537 211.156 163.278C210.21 164.02 209.49 165.004 208.996 166.232C208.51 167.459 208.267 168.805 208.267 170.271C208.267 171.737 208.51 173.08 208.996 174.298C209.49 175.517 210.21 176.493 211.156 177.226C212.102 177.959 213.257 178.325 214.621 178.325ZM235.17 180.409C233.474 180.409 231.974 179.979 230.67 179.118C229.375 178.257 228.361 177.068 227.628 175.551C226.895 174.026 226.528 172.266 226.528 170.271C226.528 168.26 226.895 166.491 227.628 164.966C228.361 163.432 229.375 162.239 230.67 161.386C231.974 160.526 233.474 160.095 235.17 160.095C236.866 160.095 238.362 160.526 239.658 161.386C240.953 162.247 241.967 163.44 242.7 164.966C243.442 166.491 243.812 168.26 243.812 170.271C243.812 172.266 243.446 174.026 242.713 175.551C241.98 177.068 240.962 178.257 239.658 179.118C238.362 179.979 236.866 180.409 235.17 180.409ZM235.17 178.325C236.534 178.325 237.689 177.959 238.635 177.226C239.581 176.493 240.297 175.517 240.783 174.298C241.277 173.08 241.524 171.737 241.524 170.271C241.524 168.805 241.277 167.459 240.783 166.232C240.297 165.004 239.581 164.02 238.635 163.278C237.689 162.537 236.534 162.166 235.17 162.166C233.815 162.166 232.66 162.537 231.706 163.278C230.76 164.02 230.04 165.004 229.545 166.232C229.06 167.459 228.817 168.805 228.817 170.271C228.817 171.737 229.06 173.08 229.545 174.298C230.04 175.517 230.76 176.493 231.706 177.226C232.652 177.959 233.807 178.325 235.17 178.325ZM250.363 167.727V180H248.088V160.364H250.299V163.445H250.504C250.964 162.439 251.68 161.634 252.652 161.028C253.632 160.415 254.842 160.108 256.282 160.108C257.603 160.108 258.763 160.385 259.76 160.939C260.765 161.484 261.545 162.29 262.099 163.355C262.662 164.42 262.943 165.729 262.943 167.28V180H260.667V167.42C260.667 165.81 260.216 164.536 259.312 163.598C258.417 162.661 257.216 162.192 255.707 162.192C254.676 162.192 253.76 162.413 252.959 162.857C252.157 163.3 251.523 163.939 251.054 164.774C250.594 165.601 250.363 166.585 250.363 167.727Z"
    fill="#8E1F0B" />
  <g clip-path="url(#clip1_218_1524)">
    <path
      d="M167.35 225.204V224.796C169.866 223.909 171.5 221.336 171.5 218.5C171.5 214.911 168.701 212 165.25 212C162.521 212 160.043 213.695 159.191 216.317H158.809C157.957 213.694 155.478 212 152.75 212C149.299 212 146.5 214.911 146.5 218.5C146.5 221.335 148.134 223.908 150.65 224.796V225.204C148.134 226.092 146.5 228.664 146.5 231.5C146.5 235.09 149.299 238 152.75 238C155.479 238 157.957 236.306 158.809 233.684H159.191C160.043 236.307 162.522 238 165.25 238C168.701 238 171.5 235.09 171.5 231.5C171.5 228.665 169.866 226.092 167.35 225.204ZM166.241 232.539C165.801 232.997 163.302 235.189 160.532 232.296C159.918 231.656 159.504 230.938 159.227 230.21H158.772C158.496 230.938 158.081 231.655 157.467 232.296C154.697 235.189 152.198 232.997 151.758 232.539C151.266 232.027 149.211 229.482 151.991 226.601C152.605 225.966 153.291 225.535 153.989 225.248V224.768C153.291 224.481 152.605 224.05 151.991 223.415C149.21 220.534 151.317 217.935 151.758 217.477C152.249 216.966 154.697 214.827 157.467 217.72C158.076 218.355 158.49 219.068 158.766 219.79H159.232C159.508 219.068 159.923 218.356 160.531 217.72C163.301 214.827 165.748 216.965 166.241 217.477C166.681 217.935 168.788 220.534 166.007 223.415C165.394 224.05 164.707 224.481 164.01 224.768V225.248C164.707 225.535 165.394 225.966 166.007 226.601C168.788 229.482 166.733 232.026 166.241 232.539H166.241Z"
      fill="#8E1F0B" />
    <path
      d="M158.999 228.956L158.997 228.954C158.997 228.954 158.997 228.958 158.997 228.96H159.002C159.002 228.96 159.002 228.956 159.002 228.954L159 228.956H158.999Z"
      fill="#8E1F0B" />
    <path
      d="M158.997 221.046L158.999 221.043L159.001 221.046C159.001 221.046 159.001 221.042 159.001 221.039H158.996C158.996 221.039 158.996 221.043 158.996 221.046H158.997Z"
      fill="#8E1F0B" />
    <path
      d="M161.097 227.181C162.255 225.976 162.255 224.024 161.097 222.82C159.939 221.615 158.061 221.615 156.903 222.82C155.746 224.025 155.746 225.977 156.903 227.181C158.062 228.385 159.94 228.385 161.097 227.181Z"
      fill="#8E1F0B" />
  </g>
  <defs>
    <clipPath id="clip0_218_1524">
      <rect width="25" height="26" fill="white" transform="translate(146.5)" />
    </clipPath>
    <clipPath id="clip1_218_1524">
      <rect width="25" height="26" fill="white" transform="translate(146.5 212)" />
    </clipPath>
  </defs>
</svg>